<svg width="24" height="9" viewBox="0 0 24 9" fill="none" xmlns="http://www.w3.org/2000/svg">
<path d="M5.66402 8.74805H2.19941e-05V8.06405L2.74802 5.66405C4.33202 4.28405 4.74002 3.68405 4.74002 2.66405C4.74002 1.50005 4.04402 0.792046 2.90402 0.792046C1.71602 0.792046 0.936022 1.65605 0.900022 2.98805H0.036022C0.084022 1.18805 1.22402 4.64916e-05 2.91602 4.64916e-05C4.53602 4.64916e-05 5.61602 1.04405 5.61602 2.61605C5.61602 3.86405 5.05202 4.69205 3.33602 6.19205L1.33202 7.94405H5.66402V8.74805ZM8.2503 4.28405C7.8423 4.28405 7.4943 3.93605 7.4943 3.54005C7.4943 3.13205 7.8423 2.79605 8.2503 2.79605C8.6583 2.79605 9.0063 3.13205 9.0063 3.54005C9.0063 3.93605 8.6583 4.28405 8.2503 4.28405ZM8.2503 8.88005C7.8423 8.88005 7.4943 8.54405 7.4943 8.14805C7.4943 7.74005 7.8423 7.39205 8.2503 7.39205C8.6583 7.39205 9.0063 7.74005 9.0063 8.14805C9.0063 8.54405 8.6583 8.88005 8.2503 8.88005ZM16.509 8.74805H10.845V8.06405L13.593 5.66405C15.177 4.28405 15.585 3.68405 15.585 2.66405C15.585 1.50005 14.889 0.792046 13.749 0.792046C12.561 0.792046 11.781 1.65605 11.745 2.98805H10.881C10.929 1.18805 12.069 4.64916e-05 13.761 4.64916e-05C15.381 4.64916e-05 16.461 1.04405 16.461 2.61605C16.461 3.86405 15.897 4.69205 14.181 6.19205L12.177 7.94405H16.509V8.74805ZM20.4627 4.14005H19.7787V3.54005L22.4307 0.924047H18.3147V0.156047H23.5227V0.852046L20.9547 3.40805C22.5627 3.49205 23.7147 4.51205 23.7147 6.07205C23.7147 7.77605 22.4667 8.89205 20.7267 8.89205C19.0347 8.89205 17.8947 7.84805 17.8947 6.13205H18.7467C18.7467 7.36805 19.5147 8.11205 20.7267 8.11205C22.0107 8.11205 22.8387 7.29605 22.8387 6.04805C22.8387 4.87205 21.9987 4.14005 20.4627 4.14005Z" fill="#898989"/>
</svg>
