<svg width="26" height="9" viewBox="0 0 26 9" fill="none" xmlns="http://www.w3.org/2000/svg">
<path d="M6.36 6.76804H5.352V8.59204H4.512V6.76804H4.30644e-06V6.00004L4.2 4.07696e-05H5.352V6.00004H6.36V6.76804ZM0.936004 6.00004H4.512V0.888041L0.936004 6.00004ZM9.09544 4.12804C8.68744 4.12804 8.33944 3.78004 8.33944 3.38404C8.33944 2.97604 8.68744 2.64004 9.09544 2.64004C9.50344 2.64004 9.85144 2.97604 9.85144 3.38404C9.85144 3.78004 9.50344 4.12804 9.09544 4.12804ZM9.09544 8.72404C8.68744 8.72404 8.33944 8.38804 8.33944 7.99204C8.33944 7.58404 8.68744 7.23604 9.09544 7.23604C9.50344 7.23604 9.85144 7.58404 9.85144 7.99204C9.85144 8.38804 9.50344 8.72404 9.09544 8.72404ZM17.9902 6.76804H16.9822V8.59204H16.1422V6.76804H11.6302V6.00004L15.8302 4.07696e-05H16.9822V6.00004H17.9902V6.76804ZM12.5662 6.00004H16.1422V0.888041L12.5662 6.00004ZM22.3261 8.73604C20.5981 8.73604 19.4941 7.65604 19.4941 5.96404H20.3581C20.3581 7.20004 21.1141 7.94404 22.3381 7.94404C23.6341 7.94404 24.4741 7.08004 24.4741 5.80804C24.4741 4.60804 23.6941 3.66004 22.3381 3.66004C21.5461 3.66004 20.8261 4.02004 20.3581 4.53604L19.6741 4.32004L20.7061 4.07696e-05H24.8581V0.792041H21.3301L20.6821 3.49204C21.1621 3.10804 21.7861 2.89204 22.4581 2.89204C24.2461 2.89204 25.3501 4.17604 25.3501 5.78404C25.3501 7.51204 24.1261 8.73604 22.3261 8.73604Z" fill="#898989"/>
</svg>
