<svg width="24" height="24" viewBox="0 0 24 24" fill="none" xmlns="http://www.w3.org/2000/svg">
<path d="M13.1069 8.05788L12 9.13043L10.8931 8.05788C9.73237 6.93323 7.87041 6.99533 6.78722 8.19481C5.73615 9.35872 5.59145 11.1021 6.54321 12.3485C6.66017 12.5017 6.77517 12.6483 6.88462 12.7826C7.57737 13.6325 9.08885 15.1166 9.84615 15.913C10.4057 16.5015 10.9086 16.9922 11.2875 17.3497C11.6876 17.7272 12.3052 17.7189 12.7061 17.3423C13.4048 16.6858 14.4761 15.6632 15.2308 14.8696C15.9881 14.0731 16.4226 13.6325 17.1154 12.7826C17.2248 12.6483 17.3398 12.5017 17.4568 12.3485C18.4086 11.1021 18.2638 9.35872 17.2128 8.19481C16.1296 6.99533 14.2676 6.93323 13.1069 8.05788Z" stroke="#898989" stroke-width="1.2" stroke-linecap="round" stroke-linejoin="round"/>
</svg>
