<svg width="24" height="24" viewBox="0 0 24 24" fill="none" xmlns="http://www.w3.org/2000/svg">
<path d="M11.4403 6.30863C11.6509 5.81617 12.3491 5.81617 12.5597 6.30863L13.7415 9.07207C13.8295 9.27793 14.0235 9.41884 14.2465 9.43895L17.2399 9.709C17.7733 9.75712 17.989 10.4211 17.5858 10.7735L15.3228 12.7515C15.1542 12.8988 15.0801 13.1268 15.1299 13.3451L15.7981 16.2755C15.9172 16.7977 15.3524 17.208 14.8925 16.9334L12.3121 15.3924C12.1199 15.2776 11.8801 15.2776 11.6879 15.3924L9.10747 16.9334C8.64762 17.208 8.08285 16.7977 8.20192 16.2755L8.8701 13.3451C8.91988 13.1268 8.8458 12.8988 8.67722 12.7515L6.41424 10.7735C6.01096 10.4211 6.22669 9.75712 6.76013 9.709L9.75353 9.43895C9.97651 9.41884 10.1705 9.27793 10.2585 9.07207L11.4403 6.30863Z" stroke="#898989" stroke-width="1.2"/>
</svg>
