<svg width="24" height="24" viewBox="0 0 24 24" fill="none" xmlns="http://www.w3.org/2000/svg">
<circle cx="12" cy="12.0007" r="1.16667" fill="#898989"/>
<path d="M14.0191 9.33594C14.7636 9.92972 15.2408 10.8446 15.2408 11.871C15.2408 12.8973 14.7636 13.8122 14.0191 14.406M9.98092 14.406C9.23639 13.8122 8.75928 12.8973 8.75928 11.871C8.75928 10.896 9.18982 10.0216 9.87116 9.42749" stroke="#898989" stroke-width="1.16667" stroke-linecap="round" stroke-linejoin="round"/>
<path d="M15.6344 7.33398C16.9746 8.39669 17.8334 10.0341 17.8334 11.871C17.8334 13.7079 16.9746 15.3453 15.6344 16.4081M8.36565 16.4081C7.02549 15.3453 6.16669 13.7079 6.16669 11.871C6.16669 10.1261 6.94167 8.56112 8.16807 7.49784" stroke="#898989" stroke-width="1.16667" stroke-linecap="round" stroke-linejoin="round"/>
</svg>
