<svg width="24" height="24" viewBox="0 0 24 24" fill="none" xmlns="http://www.w3.org/2000/svg">
<path d="M14 8C14 9.10457 13.1046 10 12 10C10.8954 10 10 9.10457 10 8C10 6.89543 10.8954 6 12 6C13.1046 6 14 6.89543 14 8Z" stroke="#898989" stroke-width="1.2"/>
<path d="M7.8906 13.4063L8.3359 13.1094C9.42098 12.386 10.6959 12 12 12C13.3041 12 14.579 12.386 15.6641 13.1094L16.1094 13.4063C16.6658 13.7772 17 14.4017 17 15.0704V16.0667C17 16.5821 16.5821 17 16.0667 17H12H7.93333C7.41787 17 7 16.5821 7 16.0667V15.0704C7 14.4017 7.3342 13.7772 7.8906 13.4063Z" stroke="#898989" stroke-width="1.2" stroke-linecap="round" stroke-linejoin="round"/>
</svg>
